<?xml version="1.0" standalone="no"?>
<!DOCTYPE svg PUBLIC "-//W3C//DTD SVG 20010904//EN"
 "http://www.w3.org/TR/2001/REC-SVG-20010904/DTD/svg10.dtd">
<svg version="1.0" xmlns="http://www.w3.org/2000/svg"
 width="300.000000pt" height="300.000000pt" viewBox="0 0 300.000000 300.000000"
 preserveAspectRatio="xMidYMid meet">
<metadata>
Created by potrace 1.14, written by Peter Selinger 2001-2017
</metadata>
<g transform="translate(0.000000,300.000000) scale(0.100000,-0.100000)"
fill="#000000" stroke="none">
<path d="M1369 2995 c-2 -1 -24 -6 -49 -9 -25 -4 -61 -9 -79 -12 -60 -9 -223
-65 -306 -106 -127 -62 -241 -145 -347 -252 -54 -54 -98 -102 -98 -106 0 -4
-13 -23 -30 -41 -16 -19 -30 -37 -30 -41 0 -4 -12 -24 -26 -45 -40 -58 -120
-238 -130 -292 -3 -13 -9 -32 -14 -41 -5 -10 -7 -20 -4 -22 2 -3 0 -16 -5 -29
-33 -88 -41 -341 -15 -489 2 -14 7 -41 10 -60 14 -86 88 -275 152 -385 59
-103 196 -262 295 -343 63 -51 177 -121 272 -167 117 -57 181 -116 265 -243
30 -46 61 -90 68 -97 6 -8 12 -16 12 -20 0 -3 18 -30 40 -60 22 -30 40 -57 40
-60 0 -3 13 -20 28 -36 38 -41 99 -50 139 -21 27 19 173 223 173 241 0 5 4 11
8 13 5 1 31 37 59 78 67 100 122 147 229 199 160 78 265 152 380 266 191 189
329 462 362 715 16 127 7 387 -18 470 -6 19 -13 48 -15 63 -17 92 -130 321
-208 421 -150 194 -348 346 -552 424 -27 10 -59 22 -70 27 -11 4 -25 9 -32 11
-7 1 -40 9 -75 18 -35 8 -76 18 -93 21 -32 7 -330 16 -336 10z"/>
</g>
</svg>
